<svg version="1.1" xmlns="http://www.w3.org/2000/svg" xmlns:xlink="http://www.w3.org/1999/xlink" width="292.53754" height="76.2892" viewBox="0,0,292.53754,76.2892"><defs><linearGradient x1="243.44162" y1="141.8554" x2="243.44162" y2="211.83497" gradientUnits="userSpaceOnUse" id="color-1"><stop offset="0" stop-color="#6600d1"/><stop offset="1" stop-color="#0063d1"/></linearGradient><linearGradient x1="243.44162" y1="153.79833" x2="243.44162" y2="204.48086" gradientUnits="userSpaceOnUse" id="color-2"><stop offset="0" stop-color="#390178"/><stop offset="1" stop-color="#00428d"/></linearGradient></defs><g transform="translate(-93.73123,-141.8554)"><g data-paper-data="{&quot;isPaintingLayer&quot;:true}" fill-rule="nonzero" stroke-linejoin="miter" stroke-miterlimit="10" stroke-dasharray="" stroke-dashoffset="0" style="mix-blend-mode: normal"><g><path d="M93.73123,208.10655c0,-14.80865 0,-41.6491 0,-49.90346c0,-4.74874 3.72741,-10.03805 8.60405,-10.03805c24.49015,0 222.62529,0 267.87261,0c5.87961,0 9.17765,4.94294 9.17765,9.46445c0,7.95505 0,34.13651 0,49.32986c0,6.6429 -3.29824,11.18526 -9.17765,11.18526c-45.11002,0 -242.16814,0 -267.299,0c-5.17548,0 -9.17765,-4.0282 -9.17765,-10.03805z" fill-opacity="0.52243" fill="#000000" stroke="#000000" stroke-width="0" stroke-linecap="butt"/><path d="M100.61447,201.79691c0,-14.80865 0,-41.6491 0,-49.90346c0,-4.74874 3.72741,-10.03805 8.60405,-10.03805c24.49015,0 222.62529,0 267.87261,0c5.87961,0 9.17765,4.94295 9.17765,9.46445c0,7.95505 0,34.13651 0,49.32986c0,6.6429 -3.29824,11.18526 -9.17765,11.18526c-45.11002,0 -242.16814,0 -267.299,0c-5.17548,0 -9.17765,-4.0282 -9.17765,-10.03805z" fill="url(#color-1)" stroke="#000000" stroke-width="0" stroke-linecap="butt"/><path d="M117.4998,193.68383c-0.42206,0 -0.6331,-0.23385 -0.6331,-0.70155v-36.85688c0,-0.4677 0.21103,-0.70155 0.63311,-0.70155h10.86543c5.06483,0 8.7893,1.06659 11.17343,3.19975c2.39553,2.12175 3.59329,5.22454 3.59329,9.30833c0,4.00395 -1.22628,7.06681 -3.67884,9.18856c-2.45257,2.12175 -6.13141,3.18263 -11.03653,3.18263h-4.5515v12.67918c0,0.4677 -0.23385,0.70155 -0.70154,0.70155zM123.86506,174.34851h4.44884c2.64648,0 4.60854,-0.50193 5.88615,-1.50576c1.28903,-1.01525 1.93354,-2.63508 1.93354,-4.8595c0,-2.32708 -0.64451,-3.99824 -1.93353,-5.01349c-1.27761,-1.01525 -3.26246,-1.52287 -5.95459,-1.52287h-4.38039zM165.04229,193.68383c-0.23955,0 -0.41066,-0.06845 -0.51332,-0.20533c-0.09127,-0.13688 -0.17681,-0.3194 -0.25666,-0.54755c-0.06844,-0.38784 -0.1654,-1.06088 -0.29088,-2.01909c-0.11407,-0.95821 -0.21103,-1.84228 -0.29088,-2.65219l-0.41067,-2.39552v-11.68674c0,-1.63125 -0.33081,-2.78908 -0.99243,-3.47351c-0.66162,-0.68443 -1.80805,-1.02665 -3.43928,-1.02665c-2.95447,0 -4.3975,1.07227 -4.32906,3.21685c0,0.4677 -0.21103,0.70156 -0.6331,0.70156h-5.25304c-0.4677,0 -0.72436,-0.35362 -0.76998,-1.06088c-0.22815,-2.60086 0.65592,-4.63135 2.6522,-6.09148c2.00769,-1.46014 4.88231,-2.19019 8.62389,-2.19019c3.82144,0 6.61621,0.82132 8.38434,2.46397c1.76813,1.63125 2.6522,4.15796 2.6522,7.58014v12.14874c0,1.24339 0.02851,2.41264 0.08556,3.50774c0.05704,1.0837 0.14829,2.07613 0.27377,2.9773c0.06844,0.50193 -0.14829,0.75288 -0.65021,0.75288zM153.88598,194.38538c-2.33848,0 -4.12944,-0.70154 -5.37282,-2.10464c-1.24339,-1.4031 -1.86508,-3.40506 -1.86508,-6.00592c0,-2.03049 0.38784,-3.67884 1.16354,-4.94505c0.7757,-1.26621 2.04761,-2.25864 3.81574,-2.9773c1.77953,-0.71866 4.14654,-1.19776 7.10103,-1.43731l5.44127,-0.46199v4.20928l-4.8595,0.41066c-2.25864,0.19393 -3.81572,0.62171 -4.67127,1.28333c-0.85555,0.66162 -1.28332,1.73391 -1.28332,3.21685c0,1.12932 0.23385,1.97917 0.70156,2.54953c0.4677,0.55895 1.18636,0.83844 2.15597,0.83844c1.17494,0 2.3613,-0.38215 3.55906,-1.14643c1.20916,-0.76428 2.73204,-2.11605 4.56862,-4.05528l0.22244,4.67129c-1.16354,1.27761 -2.30996,2.36701 -3.43928,3.26818c-1.12932,0.88977 -2.28147,1.5571 -3.45641,2.00198c-1.16354,0.45628 -2.42404,0.68443 -3.7815,0.68443zM191.9603,194.38538c-1.35746,0 -2.82899,-0.18822 -4.41461,-0.56465c-1.5742,-0.36504 -2.88603,-0.85555 -3.93551,-1.47154l-0.11977,-5.49259c1.01525,0.58177 2.10465,1.02094 3.26819,1.31754c1.17495,0.28517 2.26434,0.42778 3.26819,0.42778c1.8708,0 3.23396,-0.56465 4.08951,-1.69397c0.85555,-1.12932 1.28333,-2.78337 1.28333,-4.96217v-6.19414c0,-1.90502 -0.33081,-3.3024 -0.99244,-4.19217c-0.66162,-0.90116 -1.69397,-1.35176 -3.09707,-1.35176c-1.19776,0 -2.42404,0.37074 -3.67884,1.11222c-1.24339,0.74148 -2.72063,1.88791 -4.43172,3.43929l-0.29088,-5.13327c1.12932,-1.0951 2.25864,-2.04191 3.38796,-2.84041c1.12932,-0.7985 2.29857,-1.4202 3.50774,-1.86508c1.20917,-0.44488 2.5096,-0.66732 3.90129,-0.66732c2.85182,0 4.99638,0.84984 6.4337,2.54953c1.43732,1.68827 2.15597,4.28343 2.15597,7.78547v8.0079c0,3.96973 -0.88406,6.92993 -2.65219,8.88057c-1.76813,1.93924 -4.32905,2.90885 -7.68279,2.90885zM178.23736,204.48081c-0.43347,0 -0.65021,-0.23385 -0.65021,-0.70154v-31.87761c0,-1.01525 -0.03993,-2.06471 -0.11977,-3.1484c-0.06844,-1.0951 -0.1597,-2.11035 -0.27377,-3.04574c-0.04562,-0.50193 0.18253,-0.75288 0.68444,-0.75288h4.91083c0.43348,0 0.69014,0.21103 0.76999,0.63311c0.06844,0.31939 0.14259,0.72436 0.22245,1.21488c0.07986,0.47911 0.13689,0.97533 0.17111,1.48865c0.04563,0.50193 0.06844,0.90688 0.06844,1.21488l0.462,3.26819v31.00496c0,0.4677 -0.23385,0.70155 -0.70154,0.70155zM220.98068,194.38538c-4.19788,0 -7.35198,-0.92399 -9.46232,-2.77197c-2.09894,-1.84798 -3.14841,-4.60283 -3.14841,-8.26456v-7.23791c0,-3.90129 1.03806,-6.85006 3.11419,-8.84633c2.08753,-2.00769 5.23593,-3.01152 9.44522,-3.01152c4.12943,0 7.24361,0.97533 9.34255,2.92597c2.09893,1.93924 3.14841,4.77966 3.14841,8.52123v4.5515c0,0.4677 -0.23385,0.70155 -0.70155,0.70155h-17.52156v1.74531c0,2.14458 0.45628,3.71307 1.36887,4.7055c0.92399,0.99243 2.41833,1.48865 4.48305,1.48865c1.59701,0 2.829,-0.25095 3.69596,-0.75288c0.87836,-0.51333 1.31754,-1.27191 1.31754,-2.27575c0,-0.4677 0.23385,-0.70154 0.70155,-0.70154h5.37282c0.43347,0 0.66733,0.21103 0.70155,0.63311c0.11407,2.80619 -0.84984,4.93934 -2.89173,6.39948c-2.04191,1.46014 -5.03061,2.19019 -8.96611,2.19019zM215.19719,176.28205h11.4472v-0.29088c0,-2.14458 -0.46771,-3.71878 -1.4031,-4.72261c-0.92399,-1.01525 -2.34419,-1.52286 -4.26061,-1.52286c-1.98487,0 -3.445,0.51903 -4.38039,1.5571c-0.9354,1.02665 -1.4031,2.60657 -1.4031,4.73973zM240.72472,193.68383c-0.43347,0 -0.65021,-0.23385 -0.65021,-0.70155v-20.84108c0,-1.17494 -0.02852,-2.28716 -0.08555,-3.33662c-0.05703,-1.04948 -0.1597,-2.08182 -0.308,-3.09707c-0.07985,-0.50193 0.14831,-0.75288 0.68444,-0.75288h4.91083c0.43348,0 0.69014,0.19393 0.76999,0.58177c0.1483,0.69584 0.26238,1.49436 0.34222,2.39553c0.07986,0.88977 0.11978,1.68827 0.11978,2.39553l0.462,3.38796v19.26688c0,0.4677 -0.23385,0.70155 -0.70154,0.70155zM246.3371,176.28205l-0.35933,-5.9546c0.82132,-1.17494 1.74532,-2.21871 2.77197,-3.13129c1.03807,-0.91259 2.08752,-1.63125 3.1484,-2.15598c1.07229,-0.52473 2.05902,-0.7871 2.96019,-0.7871c0.66162,0 1.18636,0.05704 1.5742,0.17111c0.35363,0.11407 0.53045,0.36504 0.53045,0.75288c0.07986,0.93539 0.10837,1.93924 0.08556,3.01152c-0.02281,1.07228 -0.09125,2.07613 -0.20533,3.01152c-0.07985,0.50193 -0.37074,0.69584 -0.87265,0.58177c-0.23955,-0.03422 -0.53614,-0.06845 -0.88977,-0.10267c-0.34222,-0.04562 -0.70724,-0.06844 -1.09509,-0.06844c-0.85555,0 -1.74531,0.18823 -2.6693,0.56467c-0.91258,0.36504 -1.79094,0.90116 -2.63508,1.60842c-0.83272,0.69584 -1.61413,1.52858 -2.34419,2.4982zM273.72725,194.38538c-1.48295,0 -2.85752,-0.09127 -4.12372,-0.27377c-1.26621,-0.17111 -2.55522,-0.35362 -3.86707,-0.54755c-1.30043,-0.19393 -2.74914,-0.34792 -4.34617,-0.46199v-38.6022c0,-0.4677 0.21674,-0.70154 0.65021,-0.70154h5.54394c0.46769,0 0.70155,0.23385 0.70155,0.70155v33.5716c0.74147,0.15971 1.52857,0.29089 2.36131,0.39355c0.84413,0.09127 1.63694,0.13688 2.37842,0.13688c2.09894,0 3.65032,-0.55325 4.65416,-1.65975c1.01524,-1.1065 1.52288,-2.77197 1.52288,-4.99639v-6.19414c0,-1.90502 -0.33081,-3.3024 -0.99243,-4.19217c-0.66162,-0.90116 -1.69398,-1.35176 -3.09707,-1.35176c-1.11791,0 -2.27574,0.33082 -3.4735,0.99244c-1.18635,0.66162 -2.65219,1.77383 -4.3975,3.33663l0.17111,-5.61238c1.71109,-1.63125 3.38225,-2.81759 5.0135,-3.55907c1.64264,-0.74148 3.33663,-1.1122 5.08194,-1.1122c2.85182,0 4.99639,0.84984 6.4337,2.54953c1.43732,1.68827 2.15597,4.28343 2.15597,7.78547v7.93946c0,3.96973 -1.01524,6.94132 -3.04574,8.91479c-2.01909,1.96204 -5.12756,2.94307 -9.32544,2.94307zM296.96185,204.48081c-0.54755,0 -0.70155,-0.26807 -0.46199,-0.8042l3.90129,-10.23232l-10.6772,-27.66833c-0.19393,-0.54755 -0.01711,-0.82132 0.53044,-0.82132h6.00593c0.38784,0 0.6388,0.19393 0.75288,0.58177l4.20928,11.97763c0.43347,1.19776 0.84413,2.46967 1.23198,3.81573c0.38784,1.34605 0.75859,2.69782 1.11222,4.05529h0.11978c0.38784,-1.35747 0.77569,-2.69782 1.16354,-4.02106c0.38784,-1.32325 0.79281,-2.60656 1.21488,-3.84994l4.20928,-11.97763c0.11407,-0.38784 0.37073,-0.58177 0.76999,-0.58177h5.83483c0.58177,0 0.77568,0.27377 0.58177,0.82132l-14.30471,38.19153c-0.15971,0.34222 -0.41637,0.51333 -0.76999,0.51333zM334.46304,194.38538c-2.25864,0 -4.06099,-0.34792 -5.40705,-1.04376c-1.34606,-0.70726 -2.32137,-1.79664 -2.92595,-3.26818c-0.60459,-1.48294 -0.90687,-3.37655 -0.90687,-5.68082v-13.65451h-4.26061c-0.4677,0 -0.70154,-0.23385 -0.70154,-0.70154v-4.38039c0,-0.4677 0.23385,-0.70154 0.70155,-0.70154h4.50017l0.75288,-7.01547c0.07985,-0.42206 0.33651,-0.6331 0.76999,-0.6331h4.43173c0.46769,0 0.70155,0.23385 0.70155,0.70155v6.94703h8.00791c0.4677,0 0.70155,0.23385 0.70155,0.70155v4.38039c0,0.4677 -0.23385,0.70155 -0.70154,0.70155h-8.00791v13.31228c0,1.55138 0.29089,2.6807 0.87266,3.38796c0.58177,0.69584 1.5571,1.04377 2.92597,1.04377c0.69585,0 1.4031,-0.07415 2.12175,-0.22244c0.73007,-0.15971 1.40309,-0.37644 2.01908,-0.65021c0.54755,-0.19393 0.82132,-0.0171 0.82132,0.53045v4.50017c0,0.38784 -0.17681,0.63882 -0.53043,0.75288c-0.77569,0.308 -1.65975,0.54754 -2.65219,0.71866c-0.99243,0.18251 -2.07041,0.27377 -3.23395,0.27377zM357.5769,194.38538c-4.19787,0 -7.35198,-0.92399 -9.46233,-2.77197c-2.09893,-1.84798 -3.1484,-4.60283 -3.1484,-8.26456v-7.23791c0,-3.90129 1.03806,-6.85006 3.11418,-8.84633c2.08753,-2.00769 5.23594,-3.01152 9.44522,-3.01152c4.12944,0 7.24363,0.97533 9.34255,2.92597c2.09894,1.93924 3.1484,4.77966 3.1484,8.52123v4.5515c0,0.4677 -0.23385,0.70155 -0.70154,0.70155h-17.52157v1.74531c0,2.14458 0.4563,3.71307 1.36887,4.7055c0.92399,0.99243 2.41835,1.48865 4.48306,1.48865c1.59703,0 2.82901,-0.25095 3.69595,-0.75288c0.87837,-0.51333 1.31754,-1.27191 1.31754,-2.27575c0,-0.4677 0.23385,-0.70154 0.70156,-0.70154h5.37282c0.43348,0 0.66733,0.21103 0.70155,0.63311c0.11408,2.80619 -0.84984,4.93934 -2.89174,6.39948c-2.04189,1.46014 -5.03061,2.19019 -8.96611,2.19019zM351.79341,176.28205h11.4472v-0.29088c0,-2.14458 -0.4677,-3.71878 -1.4031,-4.72261c-0.92399,-1.01525 -2.34419,-1.52286 -4.26061,-1.52286c-1.98487,0 -3.445,0.51903 -4.38039,1.5571c-0.93539,1.02665 -1.4031,2.60657 -1.4031,4.73973z" fill="#ffffff" stroke="url(#color-2)" stroke-width="2.5" stroke-linecap="square"/><path d="M117.4998,193.68383c-0.42206,0 -0.6331,-0.23385 -0.6331,-0.70155v-36.85688c0,-0.4677 0.21103,-0.70155 0.63311,-0.70155h10.86543c5.06483,0 8.7893,1.06659 11.17343,3.19975c2.39553,2.12175 3.59329,5.22454 3.59329,9.30833c0,4.00395 -1.22628,7.06681 -3.67884,9.18856c-2.45257,2.12175 -6.13141,3.18263 -11.03653,3.18263h-4.5515v12.67918c0,0.4677 -0.23385,0.70155 -0.70154,0.70155zM123.86506,174.34851h4.44884c2.64648,0 4.60854,-0.50193 5.88615,-1.50576c1.28903,-1.01525 1.93354,-2.63508 1.93354,-4.8595c0,-2.32708 -0.64451,-3.99824 -1.93353,-5.01349c-1.27761,-1.01525 -3.26246,-1.52287 -5.95459,-1.52287h-4.38039zM165.04229,193.68383c-0.23955,0 -0.41066,-0.06845 -0.51332,-0.20533c-0.09127,-0.13688 -0.17681,-0.3194 -0.25666,-0.54755c-0.06844,-0.38784 -0.1654,-1.06088 -0.29088,-2.01909c-0.11407,-0.95821 -0.21103,-1.84228 -0.29088,-2.65219l-0.41067,-2.39552v-11.68674c0,-1.63125 -0.33081,-2.78908 -0.99243,-3.47351c-0.66162,-0.68443 -1.80805,-1.02665 -3.43928,-1.02665c-2.95447,0 -4.3975,1.07227 -4.32906,3.21685c0,0.4677 -0.21103,0.70156 -0.6331,0.70156h-5.25304c-0.4677,0 -0.72436,-0.35362 -0.76998,-1.06088c-0.22815,-2.60086 0.65592,-4.63135 2.6522,-6.09148c2.00769,-1.46014 4.88231,-2.19019 8.62389,-2.19019c3.82144,0 6.61621,0.82132 8.38434,2.46397c1.76813,1.63125 2.6522,4.15796 2.6522,7.58014v12.14874c0,1.24339 0.02851,2.41264 0.08556,3.50774c0.05704,1.0837 0.14829,2.07613 0.27377,2.9773c0.06844,0.50193 -0.14829,0.75288 -0.65021,0.75288zM153.88598,194.38538c-2.33848,0 -4.12944,-0.70154 -5.37282,-2.10464c-1.24339,-1.4031 -1.86508,-3.40506 -1.86508,-6.00592c0,-2.03049 0.38784,-3.67884 1.16354,-4.94505c0.7757,-1.26621 2.04761,-2.25864 3.81574,-2.9773c1.77953,-0.71866 4.14654,-1.19776 7.10103,-1.43731l5.44127,-0.46199v4.20928l-4.8595,0.41066c-2.25864,0.19393 -3.81572,0.62171 -4.67127,1.28333c-0.85555,0.66162 -1.28332,1.73391 -1.28332,3.21685c0,1.12932 0.23385,1.97917 0.70156,2.54953c0.4677,0.55895 1.18636,0.83844 2.15597,0.83844c1.17494,0 2.3613,-0.38215 3.55906,-1.14643c1.20916,-0.76428 2.73204,-2.11605 4.56862,-4.05528l0.22244,4.67129c-1.16354,1.27761 -2.30996,2.36701 -3.43928,3.26818c-1.12932,0.88977 -2.28147,1.5571 -3.45641,2.00198c-1.16354,0.45628 -2.42404,0.68443 -3.7815,0.68443zM191.9603,194.38538c-1.35746,0 -2.82899,-0.18822 -4.41461,-0.56465c-1.5742,-0.36504 -2.88603,-0.85555 -3.93551,-1.47154l-0.11977,-5.49259c1.01525,0.58177 2.10465,1.02094 3.26819,1.31754c1.17495,0.28517 2.26434,0.42778 3.26819,0.42778c1.8708,0 3.23396,-0.56465 4.08951,-1.69397c0.85555,-1.12932 1.28333,-2.78337 1.28333,-4.96217v-6.19414c0,-1.90502 -0.33081,-3.3024 -0.99244,-4.19217c-0.66162,-0.90116 -1.69397,-1.35176 -3.09707,-1.35176c-1.19776,0 -2.42404,0.37074 -3.67884,1.11222c-1.24339,0.74148 -2.72063,1.88791 -4.43172,3.43929l-0.29088,-5.13327c1.12932,-1.0951 2.25864,-2.04191 3.38796,-2.84041c1.12932,-0.7985 2.29857,-1.4202 3.50774,-1.86508c1.20917,-0.44488 2.5096,-0.66732 3.90129,-0.66732c2.85182,0 4.99638,0.84984 6.4337,2.54953c1.43732,1.68827 2.15597,4.28343 2.15597,7.78547v8.0079c0,3.96973 -0.88406,6.92993 -2.65219,8.88057c-1.76813,1.93924 -4.32905,2.90885 -7.68279,2.90885zM178.23736,204.48081c-0.43347,0 -0.65021,-0.23385 -0.65021,-0.70154v-31.87761c0,-1.01525 -0.03993,-2.06471 -0.11977,-3.1484c-0.06844,-1.0951 -0.1597,-2.11035 -0.27377,-3.04574c-0.04562,-0.50193 0.18253,-0.75288 0.68444,-0.75288h4.91083c0.43348,0 0.69014,0.21103 0.76999,0.63311c0.06844,0.31939 0.14259,0.72436 0.22245,1.21488c0.07986,0.47911 0.13689,0.97533 0.17111,1.48865c0.04563,0.50193 0.06844,0.90688 0.06844,1.21488l0.462,3.26819v31.00496c0,0.4677 -0.23385,0.70155 -0.70154,0.70155zM220.98068,194.38538c-4.19788,0 -7.35198,-0.92399 -9.46232,-2.77197c-2.09894,-1.84798 -3.14841,-4.60283 -3.14841,-8.26456v-7.23791c0,-3.90129 1.03806,-6.85006 3.11419,-8.84633c2.08753,-2.00769 5.23593,-3.01152 9.44522,-3.01152c4.12943,0 7.24361,0.97533 9.34255,2.92597c2.09893,1.93924 3.14841,4.77966 3.14841,8.52123v4.5515c0,0.4677 -0.23385,0.70155 -0.70155,0.70155h-17.52156v1.74531c0,2.14458 0.45628,3.71307 1.36887,4.7055c0.92399,0.99243 2.41833,1.48865 4.48305,1.48865c1.59701,0 2.829,-0.25095 3.69596,-0.75288c0.87836,-0.51333 1.31754,-1.27191 1.31754,-2.27575c0,-0.4677 0.23385,-0.70154 0.70155,-0.70154h5.37282c0.43347,0 0.66733,0.21103 0.70155,0.63311c0.11407,2.80619 -0.84984,4.93934 -2.89173,6.39948c-2.04191,1.46014 -5.03061,2.19019 -8.96611,2.19019zM215.19719,176.28205h11.4472v-0.29088c0,-2.14458 -0.46771,-3.71878 -1.4031,-4.72261c-0.92399,-1.01525 -2.34419,-1.52286 -4.26061,-1.52286c-1.98487,0 -3.445,0.51903 -4.38039,1.5571c-0.9354,1.02665 -1.4031,2.60657 -1.4031,4.73973zM240.72472,193.68383c-0.43347,0 -0.65021,-0.23385 -0.65021,-0.70155v-20.84108c0,-1.17494 -0.02852,-2.28716 -0.08555,-3.33662c-0.05703,-1.04948 -0.1597,-2.08182 -0.308,-3.09707c-0.07985,-0.50193 0.14831,-0.75288 0.68444,-0.75288h4.91083c0.43348,0 0.69014,0.19393 0.76999,0.58177c0.1483,0.69584 0.26238,1.49436 0.34222,2.39553c0.07986,0.88977 0.11978,1.68827 0.11978,2.39553l0.462,3.38796v19.26688c0,0.4677 -0.23385,0.70155 -0.70154,0.70155zM246.3371,176.28205l-0.35933,-5.9546c0.82132,-1.17494 1.74532,-2.21871 2.77197,-3.13129c1.03807,-0.91259 2.08752,-1.63125 3.1484,-2.15598c1.07229,-0.52473 2.05902,-0.7871 2.96019,-0.7871c0.66162,0 1.18636,0.05704 1.5742,0.17111c0.35363,0.11407 0.53045,0.36504 0.53045,0.75288c0.07986,0.93539 0.10837,1.93924 0.08556,3.01152c-0.02281,1.07228 -0.09125,2.07613 -0.20533,3.01152c-0.07985,0.50193 -0.37074,0.69584 -0.87265,0.58177c-0.23955,-0.03422 -0.53614,-0.06845 -0.88977,-0.10267c-0.34222,-0.04562 -0.70724,-0.06844 -1.09509,-0.06844c-0.85555,0 -1.74531,0.18823 -2.6693,0.56467c-0.91258,0.36504 -1.79094,0.90116 -2.63508,1.60842c-0.83272,0.69584 -1.61413,1.52858 -2.34419,2.4982zM273.72725,194.38538c-1.48295,0 -2.85752,-0.09127 -4.12372,-0.27377c-1.26621,-0.17111 -2.55522,-0.35362 -3.86707,-0.54755c-1.30043,-0.19393 -2.74914,-0.34792 -4.34617,-0.46199v-38.6022c0,-0.4677 0.21674,-0.70154 0.65021,-0.70154h5.54394c0.46769,0 0.70155,0.23385 0.70155,0.70155v33.5716c0.74147,0.15971 1.52857,0.29089 2.36131,0.39355c0.84413,0.09127 1.63694,0.13688 2.37842,0.13688c2.09894,0 3.65032,-0.55325 4.65416,-1.65975c1.01524,-1.1065 1.52288,-2.77197 1.52288,-4.99639v-6.19414c0,-1.90502 -0.33081,-3.3024 -0.99243,-4.19217c-0.66162,-0.90116 -1.69398,-1.35176 -3.09707,-1.35176c-1.11791,0 -2.27574,0.33082 -3.4735,0.99244c-1.18635,0.66162 -2.65219,1.77383 -4.3975,3.33663l0.17111,-5.61238c1.71109,-1.63125 3.38225,-2.81759 5.0135,-3.55907c1.64264,-0.74148 3.33663,-1.1122 5.08194,-1.1122c2.85182,0 4.99639,0.84984 6.4337,2.54953c1.43732,1.68827 2.15597,4.28343 2.15597,7.78547v7.93946c0,3.96973 -1.01524,6.94132 -3.04574,8.91479c-2.01909,1.96204 -5.12756,2.94307 -9.32544,2.94307zM296.96185,204.48081c-0.54755,0 -0.70155,-0.26807 -0.46199,-0.8042l3.90129,-10.23232l-10.6772,-27.66833c-0.19393,-0.54755 -0.01711,-0.82132 0.53044,-0.82132h6.00593c0.38784,0 0.6388,0.19393 0.75288,0.58177l4.20928,11.97763c0.43347,1.19776 0.84413,2.46967 1.23198,3.81573c0.38784,1.34605 0.75859,2.69782 1.11222,4.05529h0.11978c0.38784,-1.35747 0.77569,-2.69782 1.16354,-4.02106c0.38784,-1.32325 0.79281,-2.60656 1.21488,-3.84994l4.20928,-11.97763c0.11407,-0.38784 0.37073,-0.58177 0.76999,-0.58177h5.83483c0.58177,0 0.77568,0.27377 0.58177,0.82132l-14.30471,38.19153c-0.15971,0.34222 -0.41637,0.51333 -0.76999,0.51333zM334.46304,194.38538c-2.25864,0 -4.06099,-0.34792 -5.40705,-1.04376c-1.34606,-0.70726 -2.32137,-1.79664 -2.92595,-3.26818c-0.60459,-1.48294 -0.90687,-3.37655 -0.90687,-5.68082v-13.65451h-4.26061c-0.4677,0 -0.70154,-0.23385 -0.70154,-0.70154v-4.38039c0,-0.4677 0.23385,-0.70154 0.70155,-0.70154h4.50017l0.75288,-7.01547c0.07985,-0.42206 0.33651,-0.6331 0.76999,-0.6331h4.43173c0.46769,0 0.70155,0.23385 0.70155,0.70155v6.94703h8.00791c0.4677,0 0.70155,0.23385 0.70155,0.70155v4.38039c0,0.4677 -0.23385,0.70155 -0.70154,0.70155h-8.00791v13.31228c0,1.55138 0.29089,2.6807 0.87266,3.38796c0.58177,0.69584 1.5571,1.04377 2.92597,1.04377c0.69585,0 1.4031,-0.07415 2.12175,-0.22244c0.73007,-0.15971 1.40309,-0.37644 2.01908,-0.65021c0.54755,-0.19393 0.82132,-0.0171 0.82132,0.53045v4.50017c0,0.38784 -0.17681,0.63882 -0.53043,0.75288c-0.77569,0.308 -1.65975,0.54754 -2.65219,0.71866c-0.99243,0.18251 -2.07041,0.27377 -3.23395,0.27377zM357.5769,194.38538c-4.19787,0 -7.35198,-0.92399 -9.46233,-2.77197c-2.09893,-1.84798 -3.1484,-4.60283 -3.1484,-8.26456v-7.23791c0,-3.90129 1.03806,-6.85006 3.11418,-8.84633c2.08753,-2.00769 5.23594,-3.01152 9.44522,-3.01152c4.12944,0 7.24363,0.97533 9.34255,2.92597c2.09894,1.93924 3.1484,4.77966 3.1484,8.52123v4.5515c0,0.4677 -0.23385,0.70155 -0.70154,0.70155h-17.52157v1.74531c0,2.14458 0.4563,3.71307 1.36887,4.7055c0.92399,0.99243 2.41835,1.48865 4.48306,1.48865c1.59703,0 2.82901,-0.25095 3.69595,-0.75288c0.87837,-0.51333 1.31754,-1.27191 1.31754,-2.27575c0,-0.4677 0.23385,-0.70154 0.70156,-0.70154h5.37282c0.43348,0 0.66733,0.21103 0.70155,0.63311c0.11408,2.80619 -0.84984,4.93934 -2.89174,6.39948c-2.04189,1.46014 -5.03061,2.19019 -8.96611,2.19019zM351.79341,176.28205h11.4472v-0.29088c0,-2.14458 -0.4677,-3.71878 -1.4031,-4.72261c-0.92399,-1.01525 -2.34419,-1.52286 -4.26061,-1.52286c-1.98487,0 -3.445,0.51903 -4.38039,1.5571c-0.93539,1.02665 -1.4031,2.60657 -1.4031,4.73973z" fill="#ffffff" stroke="none" stroke-width="1" stroke-linecap="square"/></g></g></g></svg>